<?xml version="1.0" ?><svg style="enable-background:new 0 0 48 48;" version="1.1" viewBox="0 0 48 48" xml:space="preserve" xmlns="http://www.w3.org/2000/svg" xmlns:xlink="http://www.w3.org/1999/xlink"><g id="Icons"><g><g id="Icons_3_"><g><path d="M32.39271,34.42915c0.0591,0,0.0998-0.0431,0.0896-0.1013      c-0.073-0.4144-0.3225-1.8181-0.9299-2.5297c-0.0328-0.0384-0.0684-0.0739-0.1047-0.1089      c-0.8236-0.7953-2.0106-1.3115-3.0109-1.8391c-0.5499-0.2901-1.1038-0.5724-1.656-0.8581      c-0.7601-0.3932-1.3773-0.7035-1.7075-1.5405c-0.2986-0.7566-0.3046-0.8449-0.3528-1.6453l0.3681-0.4529      c0.2748-0.4056,0.4841-1.9493,0.4841-1.9493c0.3278-0.0091,0.5863-0.3526,0.6724-0.6236      c0.1391-0.4375,0.273-0.8439,0.3264-1.3007c0.0394-0.3369,0.1073-0.7508-0.1607-1.0175      c-0.0455-0.0453-0.4294-0.1431-0.4848-0.0281c0.0392-0.0814,0.0915-2.1453,0.0915-2.1453l0.5002-0.3717l-0.149-1.1301      c0,0-0.5092-2.4715-3.0677-3.0677c-2.5584-0.5961-4.0984,0.7949-4.0984,0.7949c-0.8073,0-1.3413,0.5464-1.5897,1.54      s0.0209,2.2346,0.0209,2.2346s0.0523,2.0639,0.0915,2.1453c-0.0554-0.115-0.4393-0.0172-0.4848,0.0281      c-0.268,0.2667-0.2001,0.6806-0.1607,1.0175c0.0534,0.4568,0.1873,0.8632,0.3264,1.3007      c0.0861,0.271,0.3446,0.6145,0.6724,0.6236c0,0,0.2093,1.5437,0.4841,1.9493l0.3681,0.4529      c-0.0482,0.8004-0.0542,0.8887-0.3528,1.6453c-0.3302,0.837-0.9474,1.1473-1.7074,1.5405      c-0.5522,0.2857-1.1061,0.568-1.6561,0.8581c-1.0003,0.5276-2.1873,1.0438-3.0109,1.8391      c-0.0363,0.035-0.0719,0.0705-0.1047,0.1089c-0.5688,0.6664-0.8237,1.9396-0.9138,2.4391      c-0.0181,0.1009,0.06,0.1918,0.1625,0.1918L32.39271,34.42915z" style="fill:#5F83CF;"/></g></g><path d="M36.46791,18.53885h-2.9844v-2.9834c0-0.1934-0.1563-0.3501-0.3496-0.3501    c-0.1934,0-0.3496,0.1567-0.3496,0.3501v2.9834h-2.9834c-0.1934,0-0.3496,0.1567-0.3496,0.3501s0.1562,0.3501,0.3496,0.3501    h2.9834v2.9839c0,0.1933,0.1562,0.3501,0.3496,0.3501c0.1933,0,0.3496-0.1568,0.3496-0.3501v-2.9839h2.9844    c0.1933,0,0.3496-0.1567,0.3496-0.3501S36.66121,18.53885,36.46791,18.53885z" style="fill:#B7B7B7;"/></g></g></svg>