<?xml version="1.0" encoding="UTF-8" standalone="no"?>
<!-- Created with Inkscape (http://www.inkscape.org/) -->

<svg
   xmlns:dc="http://purl.org/dc/elements/1.1/"
   xmlns:cc="http://creativecommons.org/ns#"
   xmlns:rdf="http://www.w3.org/1999/02/22-rdf-syntax-ns#"
   xmlns:svg="http://www.w3.org/2000/svg"
   xmlns="http://www.w3.org/2000/svg"
   xmlns:sodipodi="http://sodipodi.sourceforge.net/DTD/sodipodi-0.dtd"
   xmlns:inkscape="http://www.inkscape.org/namespaces/inkscape"
   width="25.55875mm"
   height="23.627291mm"
   viewBox="0 0 25.55875 23.627291"
   version="1.1"
   id="svg49"
   inkscape:version="0.92.5 (2060ec1f9f, 2020-04-08)"
   sodipodi:docname="add-img.svg">
  <defs
     id="defs43" />
  <sodipodi:namedview
     id="base"
     pagecolor="#ffffff"
     bordercolor="#666666"
     borderopacity="1.0"
     inkscape:pageopacity="0.0"
     inkscape:pageshadow="2"
     inkscape:zoom="0.46858866"
     inkscape:cx="60.234621"
     inkscape:cy="58.666216"
     inkscape:document-units="mm"
     inkscape:current-layer="layer1"
     showgrid="false"
     inkscape:window-width="1302"
     inkscape:window-height="704"
     inkscape:window-x="64"
     inkscape:window-y="27"
     inkscape:window-maximized="1" />
  <metadata
     id="metadata46">
    <rdf:RDF>
      <cc:Work
         rdf:about="">
        <dc:format>image/svg+xml</dc:format>
        <dc:type
           rdf:resource="http://purl.org/dc/dcmitype/StillImage" />
        <dc:title></dc:title>
      </cc:Work>
    </rdf:RDF>
  </metadata>
  <g
     inkscape:label="Layer 1"
     inkscape:groupmode="layer"
     id="layer1"
     transform="translate(-88.855606,-110.14833)">
    <g
       transform="matrix(0.26458333,0,0,0.26458333,88.379356,108.74604)"
       id="g10"
       style="fill:#ffffff">
      <path
         inkscape:connector-curvature="0"
         d="M 50.9,34.6 C 56.5,34.6 61,30.1 61,24.5 61,18.9 56.5,14.4 50.9,14.4 c -5.6,0 -10.1,4.5 -10.1,10.1 0,5.6 4.5,10.1 10.1,10.1 z"
         id="path4"
         style="fill:#ffffff" />
      <path
         inkscape:connector-curvature="0"
         d="m 89.6,53.8 v -42 C 89.6,8.2 86.7,5.3 83.1,5.3 H 8.3 c -3.6,0 -6.5,2.9 -6.5,6.5 v 56.5 c 0,3.6 2.9,6.5 6.5,6.5 h 44.3 c 0.2,1.3 0.5,2.6 0.9,3.9 3.1,9.5 11.8,15.9 21.9,15.9 12.7,0 23,-10.3 23,-23 C 98.2,64.7 95.1,58.2 89.6,53.8 Z M 6.8,68.4 V 11.8 c 0,-0.8 0.7,-1.5 1.5,-1.5 h 74.8 c 0.8,0 1.5,0.7 1.5,1.5 v 38.9 c -2.9,-1.3 -6.1,-2 -9.3,-2 -0.5,0 -1,0 -1.5,0.1 l -9,-8.7 c -2.3,-2.3 -6,-2.4 -8.6,-0.4 l -5.8,4.6 -9.7,-10.6 c -1.2,-1.3 -2.9,-2.1 -4.7,-2.1 0,0 0,0 -0.1,0 -1.8,0 -3.5,0.7 -4.7,2 v 0 L 10.7,55.2 c -0.7,0.7 -0.9,1.8 -0.5,2.7 0.4,0.9 1.3,1.5 2.3,1.5 H 55.9 C 54,62.5 52.7,66 52.4,69.8 H 8.3 C 7.4,69.9 6.8,69.2 6.8,68.4 Z m 68.5,21.3 c -7.8,0 -14.7,-5 -17.1,-12.5 -0.5,-1.5 -0.7,-3.1 -0.8,-4.6 0,-0.1 0,-0.1 0,-0.2 0,-0.2 0,-0.3 -0.1,-0.5 0,0 0,-0.1 0,-0.1 0,-9.9 8.1,-18 18,-18 4,0 7.8,1.3 11,3.7 4.4,3.4 7,8.6 7,14.2 -0.1,9.9 -8.1,18 -18,18 z"
         id="path6"
         style="fill:#ffffff" />
      <path
         inkscape:connector-curvature="0"
         d="m 84.5,69.2 h -6.8 v -6.8 c 0,-1.4 -1.1,-2.5 -2.5,-2.5 -1.4,0 -2.5,1.1 -2.5,2.5 v 6.8 H 66 c -1.4,0 -2.5,1.1 -2.5,2.5 0,1.4 1.1,2.5 2.5,2.5 h 6.8 V 81 c 0,1.4 1.1,2.5 2.5,2.5 1.4,0 2.5,-1.1 2.5,-2.5 v -6.8 h 6.8 c 1.4,0 2.5,-1.1 2.5,-2.5 0,-1.4 -1.2,-2.5 -2.6,-2.5 z"
         id="path8"
         style="fill:#ffffff" />
    </g>
  </g>
</svg>
